<svg xmlns="http://www.w3.org/2000/svg" viewBox="0 0 188 210" fill="none">
  <defs>
    <linearGradient id="line" x1="16" y1="192" x2="168" y2="22" gradientUnits="userSpaceOnUse">
      <stop offset="0" stop-color="#8f6b14"/>
      <stop offset="0.48" stop-color="#d4af37"/>
      <stop offset="1" stop-color="#f4dd91"/>
    </linearGradient>
    <linearGradient id="fill" x1="38" y1="166" x2="152" y2="38" gradientUnits="userSpaceOnUse">
      <stop offset="0" stop-color="#b88924" stop-opacity="0.22"/>
      <stop offset="1" stop-color="#f4dd91" stop-opacity="0.08"/>
    </linearGradient>
    <filter id="glow" x="-30%" y="-30%" width="160%" height="160%">
      <feGaussianBlur stdDeviation="3.2" result="blur"/>
      <feMerge>
        <feMergeNode in="blur"/>
        <feMergeNode in="SourceGraphic"/>
      </feMerge>
    </filter>
  </defs>
  <path d="M31 186 L79 36 H171 L147 58 H94 L67 110 H121 L31 186 Z" fill="url(#fill)"/>
  <path d="M31 186 L79 36 H171 L147 58 H94 L67 110 H121 L31 186 Z" stroke="url(#line)" stroke-width="7" stroke-linejoin="round" stroke-linecap="round" filter="url(#glow)"/>
  <path d="M59 146 L92 74 H145" stroke="url(#line)" stroke-width="10" stroke-linejoin="round" stroke-linecap="square" opacity="0.9"/>
  <path d="M34 36 V102" stroke="url(#line)" stroke-width="5.5" stroke-linecap="round" filter="url(#glow)"/>
  <path d="M52 44 V82 L70 64" stroke="url(#line)" stroke-width="5.5" stroke-linecap="round" stroke-linejoin="round" filter="url(#glow)"/>
  <path d="M28 112 H50 L62 98" stroke="url(#line)" stroke-width="5" stroke-linecap="round" stroke-linejoin="round" filter="url(#glow)"/>
  <circle cx="34" cy="36" r="8" fill="#f4dd91" filter="url(#glow)"/>
  <circle cx="34" cy="57" r="6.5" fill="#d4af37" filter="url(#glow)"/>
  <circle cx="34" cy="112" r="6.5" fill="#f8f4ea" filter="url(#glow)"/>
  <circle cx="53" cy="44" r="6.5" fill="#f4dd91" filter="url(#glow)"/>
  <circle cx="53" cy="82" r="6" fill="#d4af37" filter="url(#glow)"/>
  <circle cx="28" cy="112" r="6" fill="#f8f4ea" filter="url(#glow)"/>
  <ellipse cx="36" cy="196" rx="28" ry="7" fill="#d4af37" fill-opacity="0.5" filter="url(#glow)"/>
</svg>